#!OML:ASF E:\Steps\Project 1\Capture day 1\Session 2\Subject.ASF
:FULLY-SPECIFIED
:DEGREES
694
root 8.54818 18.395 -7.03657 -157.21 -3.05264 179.266
lowerback -16.2719 -3.66124 -4.99369
upperback 2.44934 -4.00511 1.07274
thorax 12.3371 -2.28014 2.93795
lowerneck -2.74595 -3.45913 -0.751366
upperneck 18.7202 -4.32865 4.4744
head 6.23235 -1.39185 1.3248
rclavicle -2.18663e-014 -2.78299e-015
rhumerus -46.3373 -21.494 -72.8863
rradius 33.1665
rwrist -1.25253
rhand -5.98959 -52.6856
rfingers 7.12502
rthumb 19.8424 -81.6927
lclavicle -2.18663e-014 -2.78299e-015
lhumerus -29.4992 1.07162 80.1498
lradius 31.5283
lwrist 0.515949
lhand -20.6687 -12.1668
lfingers 7.12502
lthumb 5.69426 17.7367
rfemur -69.214 -0.689897 19.8977
rtibia 51.7764
rfoot -17.8819 -8.8145
rtoes -23.5593
lfemur -17.8476 -9.32494 -21.3329
ltibia 21.0549
lfoot -12.8178 -0.262184
ltoes -28.4957
695
root 8.57031 18.4134 -7.12761 -156.929 -2.67116 179.208
lowerback -16.3609 -3.57854 -5.00581
upperback 2.40831 -3.88735 1.06273
thorax 12.3305 -2.2247 2.96373
lowerneck -3.10327 -3.49489 -0.859717
upperneck 18.8272 -4.39787 4.5029
head 6.33364 -1.43032 1.342
rclavicle 5.96354e-015 2.38542e-015
rhumerus -46.1371 -21.3322 -73.1052
rradius 33.3226
rwrist -1.47012
rhand -6.02746 -53.0426
rfingers 7.12502
rthumb 19.806 -82.0534
lclavicle 5.96354e-015 2.38542e-015
lhumerus -29.4491 1.35492 80.0882
lradius 31.3275
lwrist 0.25351
lhand -20.4595 -11.9341
lfingers 7.12502
lthumb 5.89623 17.9638
rfemur -69.4623 -0.251955 19.8169
rtibia 52.2236
rfoot -17.7 -8.62544
rtoes -25.334
lfemur -17.7789 -9.20042 -21.3464
ltibia 21.0095
lfoot -12.3343 -0.0410708
ltoes -30.7722
696
root 8.58909 18.4362 -7.22459 -156.718 -2.3853 179.271
lowerback -16.4426 -3.47057 -4.74673
upperback 2.43752 -3.78767 1.03041
thorax 12.3793 -2.15908 2.80518
lowerneck -2.95138 -3.39333 -0.644341
upperneck 18.2833 -4.28748 4.38826
head 6.12424 -1.40314 1.27594
rclavicle 1.36167e-014 -7.55382e-015
rhumerus -45.6506 -21.2083 -73.4489
rradius 33.1803
rwrist -1.62018
rhand -5.91157 -52.8599
rfingers 7.12502
rthumb 19.9174 -81.8592
lclavicle 1.36167e-014 -7.55382e-015
lhumerus -29.3751 1.5527 79.9915
lradius 31.1574
lwrist 0.027868
lhand -20.3883 -12.0839
lfingers 7.12502
lthumb 5.96489 17.8122
rfemur -69.2993 0.207913 19.797
rtibia 52.2265
rfoot -17.0908 -8.59139
rtoes -28.1406
lfemur -17.6167 -9.03535 -21.2479
ltibia 20.9881
lfoot -11.7776 0.105137
ltoes -33.581
697
root 8.60923 18.4697 -7.33035 -156.8 -2.3445 179.349
lowerback -16.2678 -3.39724 -4.44663
upperback 2.4441 -3.75707 1.01455
thorax 12.2566 -2.12142 2.63437
lowerneck -2.26977 -3.24347 -0.307442
upperneck 17.5231 -4.06991 4.15327
head 5.74937 -1.32952 1.16609
rclavicle 1.93815e-014 1.78906e-015
rhumerus -45.5876 -21.3165 -73.4997
rradius 33.073
rwrist -1.56969
rhand -5.9279 -52.6146
rfingers 7.12502
rthumb 19.9017 -81.6155
lclavicle 1.93815e-014 1.78906e-015
lhumerus -29.4878 1.66044 79.9148
lradius 30.9174
lwrist -0.218628
lhand -20.586 -12.2816
lfingers 7.12502
lthumb 5.77406 17.6197
rfemur -68.5726 0.490892 19.8255
rtibia 51.9472
rfoot -14.5842 -8.74842
rtoes -32.7612
lfemur -17.1377 -9.01753 -21.0784
ltibia 20.9697
lfoot -11.1541 0.0229928
ltoes -34.0339
698
root 8.63219 18.5105 -7.43625 -156.984 -2.40878 179.337
lowerback -15.9974 -3.38204 -4.25391
upperback 2.43863 -3.78871 1.02596
thorax 12.0801 -2.12143 2.54181
lowerneck -2.28839 -3.26401 -0.506379
upperneck 17.7639 -4.06181 4.10373
head 5.83089 -1.32916 1.18466
rclavicle -9.44227e-015 3.37934e-015
rhumerus -45.7431 -21.1963 -73.5325
rradius 33.3079
rwrist -1.60513
rhand -5.91877 -52.6146
rfingers 7.12502
rthumb 19.9104 -81.6147
lclavicle -9.44227e-015 3.37934e-015
lhumerus -29.7374 1.73133 79.919
lradius 30.7479
lwrist -0.482684
lhand -20.716 -12.1647
lfingers 7.12502
lthumb 5.64854 17.74
rfemur -67.7386 0.626686 19.8623
rtibia 51.7396
rfoot -14.6465 -9.12216
rtoes -33.6383
lfemur -16.5802 -9.18898 -20.9578
ltibia 20.9792
lfoot -10.377 0.0353457
ltoes -33.2408
699
root 8.65346 18.55 -7.54148 -157.037 -2.42812 179.322
lowerback -15.8847 -3.36443 -3.98416
upperback 2.54968 -3.81837 0.995454
thorax 12.1201 -2.11695 2.35018
lowerneck -3.12871 -3.32783 -0.767754
upperneck 18.3824 -4.16752 4.19576
head 6.18156 -1.36691 1.24042
rclavicle 2.19657e-014 -1.47101e-014
rhumerus -45.51 -21.1836 -73.7876
rradius 33.575
rwrist -1.39822
rhand -5.65823 -52.4971
rfingers 7.12502
rthumb 20.1609 -81.4709
lclavicle 2.19657e-014 -1.47101e-014
lhumerus -29.6785 1.91485 79.8374
lradius 30.5533
lwrist -0.805418
lhand -20.6531 -12.5595
lfingers 7.12502
lthumb 5.70925 17.3436
rfemur -66.9417 0.71202 19.9876
rtibia 51.3406
rfoot -14.6665 -9.35919
rtoes -35.7873
lfemur -16.2274 -9.30309 -20.8655
ltibia 21.0974
lfoot -9.64341 0.1944
ltoes -33.7455
700
root 8.67173 18.5901 -7.64799 -156.883 -2.42953 179.411
lowerback -15.9789 -3.3704 -3.59596
upperback 2.6275 -3.89902 0.98793
thorax 12.2406 -2.1286 2.09466
lowerneck -3.53688 -3.29636 -0.666479
upperneck 18.4661 -4.13751 4.03109
head 6.27284 -1.36054 1.16693
rclavicle -1.8487e-014 8.94531e-015
rhumerus -45.0349 -21.1189 -74.1624
rradius 33.5521
rwrist -1.17151
rhand -6.00599 -51.6689
rfingers 7.12502
rthumb 19.8266 -80.6776
lclavicle -1.8487e-014 8.94531e-015
lhumerus -29.5016 2.21047 79.6993
lradius 30.3059
lwrist -0.973874
lhand -20.5498 -12.7569
lfingers 7.12502
lthumb 5.80902 17.1435
rfemur -66.3135 0.756889 20.2674
rtibia 50.9237
rfoot -14.8892 -9.2587
rtoes -37.1041
lfemur -16.0998 -9.3568 -20.6561
ltibia 21.1803
lfoot -8.85487 0.341612
ltoes -34.3671
